<mxfile host="app.diagrams.net" agent="Mozilla/5.0 (Windows NT 10.0; Win64; x64) AppleWebKit/537.36 (KHTML, like Gecko) Chrome/131.0.0.0 Safari/537.36" version="25.0.3">
  <diagram name="Página-1" id="pSwvWQVCijPj5GjBQmXE">
    <mxGraphModel dx="2269" dy="1177" grid="1" gridSize="10" guides="1" tooltips="1" connect="1" arrows="1" fold="1" page="1" pageScale="1" pageWidth="827" pageHeight="1169" math="0" shadow="0">
      <root>
        <mxCell id="0" />
        <mxCell id="1" parent="0" />
        <mxCell id="Z3xrSxXArOM-U5VfvTE8-8" value="" style="edgeStyle=orthogonalEdgeStyle;rounded=0;orthogonalLoop=1;jettySize=auto;html=1;" edge="1" parent="1" source="Z3xrSxXArOM-U5VfvTE8-1" target="Z3xrSxXArOM-U5VfvTE8-7">
          <mxGeometry relative="1" as="geometry" />
        </mxCell>
        <mxCell id="Z3xrSxXArOM-U5VfvTE8-1" value="Inicio" style="ellipse;whiteSpace=wrap;html=1;aspect=fixed;" vertex="1" parent="1">
          <mxGeometry x="135" y="30" width="80" height="80" as="geometry" />
        </mxCell>
        <mxCell id="Z3xrSxXArOM-U5VfvTE8-10" value="" style="edgeStyle=orthogonalEdgeStyle;rounded=0;orthogonalLoop=1;jettySize=auto;html=1;" edge="1" parent="1" source="Z3xrSxXArOM-U5VfvTE8-7" target="Z3xrSxXArOM-U5VfvTE8-9">
          <mxGeometry relative="1" as="geometry" />
        </mxCell>
        <mxCell id="Z3xrSxXArOM-U5VfvTE8-7" value="&#xa;&lt;p&gt;&lt;span style=&quot;color: rgb(26, 26, 26); background-color: transparent;&quot;&gt;Definir Tipo de Cambio EUR a MXN = 23.70&lt;/span&gt;&lt;/p&gt;&lt;p&gt;&lt;span style=&quot;color: rgb(26, 26, 26); background-color: transparent;&quot;&gt; Definir Tipo de Cambio USD a MXN = 20.75&lt;/span&gt;&lt;/p&gt;&#xa;&#xa;" style="rounded=1;whiteSpace=wrap;html=1;fillColor=#fad7ac;strokeColor=#b46504;" vertex="1" parent="1">
          <mxGeometry x="55" y="150" width="240" height="80" as="geometry" />
        </mxCell>
        <mxCell id="Z3xrSxXArOM-U5VfvTE8-12" value="" style="edgeStyle=orthogonalEdgeStyle;rounded=0;orthogonalLoop=1;jettySize=auto;html=1;" edge="1" parent="1" source="Z3xrSxXArOM-U5VfvTE8-9" target="Z3xrSxXArOM-U5VfvTE8-11">
          <mxGeometry relative="1" as="geometry" />
        </mxCell>
        <mxCell id="Z3xrSxXArOM-U5VfvTE8-9" value="&#xa;&lt;span style=&quot;background-color: transparent; color: rgb(26, 26, 26);&quot;&gt;Mostrar mensaje: &quot;Ingrese la moneda origen para la conversión (EUR/USD): &quot;&lt;/span&gt;&#xa;&#xa;" style="shape=parallelogram;perimeter=parallelogramPerimeter;whiteSpace=wrap;html=1;fixedSize=1;rounded=1;fillColor=#b0e3e6;strokeColor=#0e8088;" vertex="1" parent="1">
          <mxGeometry x="10" y="270" width="330" height="80" as="geometry" />
        </mxCell>
        <mxCell id="Z3xrSxXArOM-U5VfvTE8-14" value="" style="edgeStyle=orthogonalEdgeStyle;rounded=0;orthogonalLoop=1;jettySize=auto;html=1;" edge="1" parent="1" source="Z3xrSxXArOM-U5VfvTE8-11" target="Z3xrSxXArOM-U5VfvTE8-13">
          <mxGeometry relative="1" as="geometry" />
        </mxCell>
        <mxCell id="Z3xrSxXArOM-U5VfvTE8-11" value="&lt;span style=&quot;background-color: transparent; color: rgb(26, 26, 26);&quot;&gt;Mostar mensaje : &quot;Ingrese el monto a convertir: &quot;&lt;/span&gt;" style="shape=parallelogram;perimeter=parallelogramPerimeter;whiteSpace=wrap;html=1;fixedSize=1;rounded=1;fillColor=#b0e3e6;strokeColor=#0e8088;" vertex="1" parent="1">
          <mxGeometry x="32.5" y="395" width="285" height="80" as="geometry" />
        </mxCell>
        <mxCell id="Z3xrSxXArOM-U5VfvTE8-16" value="" style="edgeStyle=orthogonalEdgeStyle;rounded=0;orthogonalLoop=1;jettySize=auto;html=1;" edge="1" parent="1" source="Z3xrSxXArOM-U5VfvTE8-13" target="Z3xrSxXArOM-U5VfvTE8-15">
          <mxGeometry relative="1" as="geometry" />
        </mxCell>
        <mxCell id="Z3xrSxXArOM-U5VfvTE8-19" value="Si" style="edgeLabel;html=1;align=center;verticalAlign=middle;resizable=0;points=[];" vertex="1" connectable="0" parent="Z3xrSxXArOM-U5VfvTE8-16">
          <mxGeometry x="-0.2444" y="-2" relative="1" as="geometry">
            <mxPoint as="offset" />
          </mxGeometry>
        </mxCell>
        <mxCell id="Z3xrSxXArOM-U5VfvTE8-21" value="" style="edgeStyle=orthogonalEdgeStyle;rounded=0;orthogonalLoop=1;jettySize=auto;html=1;" edge="1" parent="1" source="Z3xrSxXArOM-U5VfvTE8-13" target="Z3xrSxXArOM-U5VfvTE8-20">
          <mxGeometry relative="1" as="geometry" />
        </mxCell>
        <mxCell id="Z3xrSxXArOM-U5VfvTE8-22" value="No" style="edgeLabel;html=1;align=center;verticalAlign=middle;resizable=0;points=[];" vertex="1" connectable="0" parent="Z3xrSxXArOM-U5VfvTE8-21">
          <mxGeometry x="-0.1833" y="-1" relative="1" as="geometry">
            <mxPoint as="offset" />
          </mxGeometry>
        </mxCell>
        <mxCell id="Z3xrSxXArOM-U5VfvTE8-13" value="&lt;span style=&quot;background-color: transparent; color: rgb(26, 26, 26);&quot;&gt;tipo_conversion == EUR&lt;/span&gt;" style="rhombus;whiteSpace=wrap;html=1;rounded=1;fillColor=#d0cee2;strokeColor=#56517e;" vertex="1" parent="1">
          <mxGeometry x="65" y="530" width="220" height="100" as="geometry" />
        </mxCell>
        <mxCell id="Z3xrSxXArOM-U5VfvTE8-18" value="" style="edgeStyle=orthogonalEdgeStyle;rounded=0;orthogonalLoop=1;jettySize=auto;html=1;" edge="1" parent="1" source="Z3xrSxXArOM-U5VfvTE8-15" target="Z3xrSxXArOM-U5VfvTE8-17">
          <mxGeometry relative="1" as="geometry" />
        </mxCell>
        <mxCell id="Z3xrSxXArOM-U5VfvTE8-15" value="&#xa;&lt;span style=&quot;background-color: transparent; color: rgb(26, 26, 26);&quot;&gt;C&lt;span class=&quot;ql-cursor&quot;&gt;﻿&lt;/span&gt;alcular resultado = monto a convertir * tipo de cambio EUR a MXN&lt;/span&gt;&#xa;&#xa;" style="whiteSpace=wrap;html=1;rounded=1;fillColor=#fad7ac;strokeColor=#b46504;" vertex="1" parent="1">
          <mxGeometry x="390" y="540" width="200" height="80" as="geometry" />
        </mxCell>
        <mxCell id="Z3xrSxXArOM-U5VfvTE8-36" style="edgeStyle=orthogonalEdgeStyle;rounded=0;orthogonalLoop=1;jettySize=auto;html=1;entryX=0.5;entryY=0;entryDx=0;entryDy=0;" edge="1" parent="1" source="Z3xrSxXArOM-U5VfvTE8-17" target="Z3xrSxXArOM-U5VfvTE8-33">
          <mxGeometry relative="1" as="geometry">
            <mxPoint x="990" y="1154" as="targetPoint" />
            <Array as="points">
              <mxPoint x="950" y="580" />
              <mxPoint x="950" y="1060" />
            </Array>
          </mxGeometry>
        </mxCell>
        <mxCell id="Z3xrSxXArOM-U5VfvTE8-17" value="&#xa;&lt;span style=&quot;background-color: transparent; color: rgb(26, 26, 26);&quot;&gt;Mo&lt;span class=&quot;ql-cursor&quot;&gt;﻿&lt;/span&gt;strar mensaje &quot;El resultado de la conversión de EUR a MXN es: &quot;, resultado&lt;/span&gt;&#xa;&#xa;" style="shape=parallelogram;perimeter=parallelogramPerimeter;whiteSpace=wrap;html=1;fixedSize=1;rounded=1;fillColor=#b0e3e6;strokeColor=#0e8088;" vertex="1" parent="1">
          <mxGeometry x="645" y="540" width="250" height="80" as="geometry" />
        </mxCell>
        <mxCell id="Z3xrSxXArOM-U5VfvTE8-31" value="" style="edgeStyle=orthogonalEdgeStyle;rounded=0;orthogonalLoop=1;jettySize=auto;html=1;" edge="1" parent="1" source="Z3xrSxXArOM-U5VfvTE8-20" target="Z3xrSxXArOM-U5VfvTE8-30">
          <mxGeometry relative="1" as="geometry" />
        </mxCell>
        <mxCell id="Z3xrSxXArOM-U5VfvTE8-32" value="No" style="edgeLabel;html=1;align=center;verticalAlign=middle;resizable=0;points=[];" vertex="1" connectable="0" parent="Z3xrSxXArOM-U5VfvTE8-31">
          <mxGeometry x="-0.1111" y="-1" relative="1" as="geometry">
            <mxPoint as="offset" />
          </mxGeometry>
        </mxCell>
        <mxCell id="Z3xrSxXArOM-U5VfvTE8-20" value="&lt;span style=&quot;background-color: transparent; color: rgb(26, 26, 26);&quot;&gt;tipo_conversion == USD&lt;/span&gt;" style="rhombus;whiteSpace=wrap;html=1;rounded=1;fillColor=#d0cee2;strokeColor=#56517e;" vertex="1" parent="1">
          <mxGeometry x="65" y="710" width="220" height="100" as="geometry" />
        </mxCell>
        <mxCell id="Z3xrSxXArOM-U5VfvTE8-25" value="" style="edgeStyle=orthogonalEdgeStyle;rounded=0;orthogonalLoop=1;jettySize=auto;html=1;" edge="1" parent="1" target="Z3xrSxXArOM-U5VfvTE8-28">
          <mxGeometry relative="1" as="geometry">
            <mxPoint x="285" y="760" as="sourcePoint" />
          </mxGeometry>
        </mxCell>
        <mxCell id="Z3xrSxXArOM-U5VfvTE8-26" value="Si" style="edgeLabel;html=1;align=center;verticalAlign=middle;resizable=0;points=[];" vertex="1" connectable="0" parent="Z3xrSxXArOM-U5VfvTE8-25">
          <mxGeometry x="-0.2444" y="-2" relative="1" as="geometry">
            <mxPoint as="offset" />
          </mxGeometry>
        </mxCell>
        <mxCell id="Z3xrSxXArOM-U5VfvTE8-27" value="" style="edgeStyle=orthogonalEdgeStyle;rounded=0;orthogonalLoop=1;jettySize=auto;html=1;" edge="1" parent="1" source="Z3xrSxXArOM-U5VfvTE8-28" target="Z3xrSxXArOM-U5VfvTE8-29">
          <mxGeometry relative="1" as="geometry" />
        </mxCell>
        <mxCell id="Z3xrSxXArOM-U5VfvTE8-28" value="&lt;br&gt;&lt;span style=&quot;background-color: transparent; color: rgb(26, 26, 26);&quot;&gt;C&lt;span class=&quot;ql-cursor&quot;&gt;﻿&lt;/span&gt;alcular resultado = monto a convertir * tipo de cambio USD a MXN&lt;/span&gt;&lt;div&gt;&lt;br/&gt;&lt;/div&gt;" style="whiteSpace=wrap;html=1;rounded=1;fillColor=#fad7ac;strokeColor=#b46504;" vertex="1" parent="1">
          <mxGeometry x="390" y="720" width="200" height="80" as="geometry" />
        </mxCell>
        <mxCell id="Z3xrSxXArOM-U5VfvTE8-35" style="edgeStyle=orthogonalEdgeStyle;rounded=0;orthogonalLoop=1;jettySize=auto;html=1;entryX=0.5;entryY=0;entryDx=0;entryDy=0;" edge="1" parent="1" source="Z3xrSxXArOM-U5VfvTE8-29" target="Z3xrSxXArOM-U5VfvTE8-33">
          <mxGeometry relative="1" as="geometry">
            <Array as="points">
              <mxPoint x="770" y="1000" />
              <mxPoint x="175" y="1000" />
            </Array>
          </mxGeometry>
        </mxCell>
        <mxCell id="Z3xrSxXArOM-U5VfvTE8-29" value="&lt;br&gt;&lt;span style=&quot;background-color: transparent; color: rgb(26, 26, 26);&quot;&gt;Mo&lt;span class=&quot;ql-cursor&quot;&gt;﻿&lt;/span&gt;strar mensaje &quot;El resultado de la conversión de USD a MXN es: &quot;, resultado&lt;/span&gt;&lt;div&gt;&lt;br/&gt;&lt;/div&gt;" style="shape=parallelogram;perimeter=parallelogramPerimeter;whiteSpace=wrap;html=1;fixedSize=1;rounded=1;fillColor=#b0e3e6;strokeColor=#0e8088;" vertex="1" parent="1">
          <mxGeometry x="645" y="720" width="250" height="80" as="geometry" />
        </mxCell>
        <mxCell id="Z3xrSxXArOM-U5VfvTE8-34" value="" style="edgeStyle=orthogonalEdgeStyle;rounded=0;orthogonalLoop=1;jettySize=auto;html=1;" edge="1" parent="1" source="Z3xrSxXArOM-U5VfvTE8-30" target="Z3xrSxXArOM-U5VfvTE8-33">
          <mxGeometry relative="1" as="geometry" />
        </mxCell>
        <mxCell id="Z3xrSxXArOM-U5VfvTE8-30" value="&lt;span style=&quot;background-color: transparent; color: rgb(26, 26, 26);&quot;&gt;Mostrar mensaje &quot;Tipo de conversión no válido&quot;&lt;/span&gt;" style="shape=parallelogram;perimeter=parallelogramPerimeter;whiteSpace=wrap;html=1;fixedSize=1;rounded=1;fillColor=#b0e3e6;strokeColor=#0e8088;" vertex="1" parent="1">
          <mxGeometry x="80" y="870" width="190" height="100" as="geometry" />
        </mxCell>
        <mxCell id="Z3xrSxXArOM-U5VfvTE8-33" value="Fin" style="ellipse;whiteSpace=wrap;html=1;rounded=1;" vertex="1" parent="1">
          <mxGeometry x="135" y="1060" width="80" height="80" as="geometry" />
        </mxCell>
      </root>
    </mxGraphModel>
  </diagram>
</mxfile>
